<mxfile host="app.diagrams.net" agent="Mozilla/5.0 (Windows NT 10.0; Win64; x64; rv:143.0) Gecko/20100101 Firefox/143.0" version="28.2.5">
  <diagram name="Page-1" id="V_MXd0W2n6GU5ylV6teZ">
    <mxGraphModel grid="1" page="1" gridSize="10" guides="1" tooltips="1" connect="1" arrows="1" fold="1" pageScale="1" pageWidth="827" pageHeight="1169" math="0" shadow="0">
      <root>
        <mxCell id="0" />
        <mxCell id="1" parent="0" />
        <mxCell id="5n2gVOFDeof7o9l6x2do-26" value="V_producto/id" style="rounded=0;whiteSpace=wrap;html=1;fillColor=#ffe6cc;strokeColor=#d79b00;" vertex="1" parent="1">
          <mxGeometry x="-650" y="40" width="120" height="60" as="geometry" />
        </mxCell>
        <mxCell id="5n2gVOFDeof7o9l6x2do-27" value="&lt;div&gt;C_reviews/upload&lt;/div&gt;&lt;div&gt;(route.ts)&lt;/div&gt;" style="rounded=0;whiteSpace=wrap;html=1;fillColor=#e1d5e7;strokeColor=#9673a6;" vertex="1" parent="1">
          <mxGeometry x="-290" y="40" width="120" height="60" as="geometry" />
        </mxCell>
        <mxCell id="5n2gVOFDeof7o9l6x2do-28" value="orders" style="rounded=0;whiteSpace=wrap;html=1;fillColor=#d5e8d4;strokeColor=#82b366;" vertex="1" parent="1">
          <mxGeometry x="151" y="40" width="120" height="60" as="geometry" />
        </mxCell>
        <mxCell id="5n2gVOFDeof7o9l6x2do-29" value="Actor" style="shape=umlActor;verticalLabelPosition=bottom;verticalAlign=top;html=1;outlineConnect=0;" vertex="1" parent="1">
          <mxGeometry x="-760" y="40" width="30" height="60" as="geometry" />
        </mxCell>
        <mxCell id="5n2gVOFDeof7o9l6x2do-30" style="edgeStyle=orthogonalEdgeStyle;rounded=0;orthogonalLoop=1;jettySize=auto;html=1;exitX=0.5;exitY=1;exitDx=0;exitDy=0;" edge="1" parent="1" source="5n2gVOFDeof7o9l6x2do-26" target="5n2gVOFDeof7o9l6x2do-26">
          <mxGeometry relative="1" as="geometry" />
        </mxCell>
        <mxCell id="5n2gVOFDeof7o9l6x2do-31" value="" style="endArrow=none;dashed=1;html=1;dashPattern=1 3;strokeWidth=2;rounded=0;entryX=0.5;entryY=0.5;entryDx=0;entryDy=0;entryPerimeter=0;" edge="1" parent="1" target="5n2gVOFDeof7o9l6x2do-29">
          <mxGeometry width="50" height="50" relative="1" as="geometry">
            <mxPoint x="-745" y="680" as="sourcePoint" />
            <mxPoint x="-723" y="170" as="targetPoint" />
          </mxGeometry>
        </mxCell>
        <mxCell id="5n2gVOFDeof7o9l6x2do-32" value="" style="endArrow=none;dashed=1;html=1;dashPattern=1 3;strokeWidth=2;rounded=0;entryX=0.5;entryY=1;entryDx=0;entryDy=0;" edge="1" parent="1" target="5n2gVOFDeof7o9l6x2do-27">
          <mxGeometry width="50" height="50" relative="1" as="geometry">
            <mxPoint x="-230" y="680" as="sourcePoint" />
            <mxPoint x="10" y="370" as="targetPoint" />
          </mxGeometry>
        </mxCell>
        <mxCell id="5n2gVOFDeof7o9l6x2do-33" value="" style="endArrow=none;dashed=1;html=1;dashPattern=1 3;strokeWidth=2;rounded=0;entryX=0.5;entryY=1;entryDx=0;entryDy=0;" edge="1" parent="1" target="5n2gVOFDeof7o9l6x2do-28">
          <mxGeometry width="50" height="50" relative="1" as="geometry">
            <mxPoint x="211" y="680" as="sourcePoint" />
            <mxPoint x="281" y="370" as="targetPoint" />
          </mxGeometry>
        </mxCell>
        <mxCell id="5n2gVOFDeof7o9l6x2do-35" value="" style="endArrow=classic;html=1;rounded=0;" edge="1" parent="1">
          <mxGeometry width="50" height="50" relative="1" as="geometry">
            <mxPoint x="-740" y="160" as="sourcePoint" />
            <mxPoint x="-590" y="160" as="targetPoint" />
          </mxGeometry>
        </mxCell>
        <mxCell id="5n2gVOFDeof7o9l6x2do-36" value="Clic detalle producto" style="edgeLabel;html=1;align=center;verticalAlign=middle;resizable=0;points=[];" connectable="0" vertex="1" parent="5n2gVOFDeof7o9l6x2do-35">
          <mxGeometry x="-0.1758" y="4" relative="1" as="geometry">
            <mxPoint x="8" y="-6" as="offset" />
          </mxGeometry>
        </mxCell>
        <mxCell id="5n2gVOFDeof7o9l6x2do-37" value="" style="endArrow=classic;html=1;rounded=0;" edge="1" parent="1">
          <mxGeometry width="50" height="50" relative="1" as="geometry">
            <mxPoint x="-590" y="348" as="sourcePoint" />
            <mxPoint x="-400" y="348" as="targetPoint" />
          </mxGeometry>
        </mxCell>
        <mxCell id="5n2gVOFDeof7o9l6x2do-38" value="Renderiza componente(reviews)" style="text;html=1;align=center;verticalAlign=middle;resizable=0;points=[];autosize=1;strokeColor=none;fillColor=none;" vertex="1" parent="1">
          <mxGeometry x="-585" y="318" width="200" height="30" as="geometry" />
        </mxCell>
        <mxCell id="5n2gVOFDeof7o9l6x2do-39" value="" style="endArrow=classic;html=1;rounded=0;" edge="1" parent="1">
          <mxGeometry width="50" height="50" relative="1" as="geometry">
            <mxPoint x="-225" y="240" as="sourcePoint" />
            <mxPoint x="215" y="240" as="targetPoint" />
          </mxGeometry>
        </mxCell>
        <mxCell id="5n2gVOFDeof7o9l6x2do-40" value="&lt;div&gt;SELECT * FROM reviews WHERE productId = ? AND aprovado = true, productId&lt;/div&gt;" style="text;html=1;align=center;verticalAlign=middle;resizable=0;points=[];autosize=1;strokeColor=none;fillColor=none;" vertex="1" parent="1">
          <mxGeometry x="-230" y="208.57000000000005" width="460" height="30" as="geometry" />
        </mxCell>
        <mxCell id="5n2gVOFDeof7o9l6x2do-41" value="" style="endArrow=classic;html=1;rounded=0;dashed=1;" edge="1" parent="1">
          <mxGeometry width="50" height="50" relative="1" as="geometry">
            <mxPoint x="215" y="280" as="sourcePoint" />
            <mxPoint x="-225" y="280" as="targetPoint" />
          </mxGeometry>
        </mxCell>
        <mxCell id="5n2gVOFDeof7o9l6x2do-42" value="id, productId, texto, imagen, fecha, aprovado, rating" style="text;html=1;align=center;verticalAlign=middle;resizable=0;points=[];autosize=1;strokeColor=none;fillColor=none;" vertex="1" parent="1">
          <mxGeometry x="-150" y="250" width="300" height="30" as="geometry" />
        </mxCell>
        <mxCell id="5n2gVOFDeof7o9l6x2do-49" value="" style="endArrow=classic;html=1;rounded=0;" edge="1" parent="1">
          <mxGeometry width="50" height="50" relative="1" as="geometry">
            <mxPoint x="-390" y="410" as="sourcePoint" />
            <mxPoint x="-740" y="410" as="targetPoint" />
          </mxGeometry>
        </mxCell>
        <mxCell id="5n2gVOFDeof7o9l6x2do-50" value="Muestra las reviews" style="text;html=1;align=center;verticalAlign=middle;resizable=0;points=[];autosize=1;strokeColor=none;fillColor=none;" vertex="1" parent="1">
          <mxGeometry x="-730" y="380" width="130" height="30" as="geometry" />
        </mxCell>
        <mxCell id="5n2gVOFDeof7o9l6x2do-51" value="V_components/review-list" style="rounded=0;whiteSpace=wrap;html=1;fillColor=#ffe6cc;strokeColor=#d79b00;" vertex="1" parent="1">
          <mxGeometry x="-450" y="40" width="120" height="60" as="geometry" />
        </mxCell>
        <mxCell id="5n2gVOFDeof7o9l6x2do-52" value="" style="endArrow=none;dashed=1;html=1;dashPattern=1 3;strokeWidth=2;rounded=0;entryX=0.5;entryY=1;entryDx=0;entryDy=0;" edge="1" parent="1" target="5n2gVOFDeof7o9l6x2do-51">
          <mxGeometry width="50" height="50" relative="1" as="geometry">
            <mxPoint x="-390" y="680" as="sourcePoint" />
            <mxPoint x="-370" y="60" as="targetPoint" />
          </mxGeometry>
        </mxCell>
        <mxCell id="5n2gVOFDeof7o9l6x2do-53" value="GET/api/reviews/upload()" style="text;html=1;align=center;verticalAlign=middle;resizable=0;points=[];autosize=1;strokeColor=none;fillColor=none;" vertex="1" parent="1">
          <mxGeometry x="-390" y="178.57000000000005" width="160" height="30" as="geometry" />
        </mxCell>
        <mxCell id="5n2gVOFDeof7o9l6x2do-54" value="" style="endArrow=classic;html=1;rounded=0;" edge="1" parent="1">
          <mxGeometry width="50" height="50" relative="1" as="geometry">
            <mxPoint x="-590" y="210" as="sourcePoint" />
            <mxPoint x="-230" y="208.57000000000005" as="targetPoint" />
          </mxGeometry>
        </mxCell>
        <mxCell id="5n2gVOFDeof7o9l6x2do-55" value="" style="endArrow=classic;html=1;rounded=0;" edge="1" parent="1">
          <mxGeometry width="50" height="50" relative="1" as="geometry">
            <mxPoint x="-230" y="302" as="sourcePoint" />
            <mxPoint x="-590" y="302" as="targetPoint" />
          </mxGeometry>
        </mxCell>
        <mxCell id="5n2gVOFDeof7o9l6x2do-56" value="{ reviews }" style="text;html=1;align=center;verticalAlign=middle;resizable=0;points=[];autosize=1;strokeColor=none;fillColor=none;" vertex="1" parent="1">
          <mxGeometry x="-360" y="270" width="80" height="30" as="geometry" />
        </mxCell>
        <mxCell id="5n2gVOFDeof7o9l6x2do-58" value="" style="endArrow=classic;html=1;rounded=0;" edge="1" parent="1">
          <mxGeometry width="50" height="50" relative="1" as="geometry">
            <mxPoint x="-390" y="360" as="sourcePoint" />
            <mxPoint x="-390" y="380" as="targetPoint" />
            <Array as="points">
              <mxPoint x="-350" y="360" />
              <mxPoint x="-350" y="380" />
            </Array>
          </mxGeometry>
        </mxCell>
        <mxCell id="5n2gVOFDeof7o9l6x2do-59" value="Calcula promedio de rating" style="text;html=1;align=center;verticalAlign=middle;resizable=0;points=[];autosize=1;strokeColor=none;fillColor=none;" vertex="1" parent="1">
          <mxGeometry x="-400" y="338" width="170" height="30" as="geometry" />
        </mxCell>
        <mxCell id="5n2gVOFDeof7o9l6x2do-60" value="" style="endArrow=none;dashed=1;html=1;dashPattern=1 3;strokeWidth=2;rounded=0;entryX=0.5;entryY=1;entryDx=0;entryDy=0;" edge="1" parent="1" target="5n2gVOFDeof7o9l6x2do-26">
          <mxGeometry width="50" height="50" relative="1" as="geometry">
            <mxPoint x="-590" y="680" as="sourcePoint" />
            <mxPoint x="-520" y="290" as="targetPoint" />
          </mxGeometry>
        </mxCell>
      </root>
    </mxGraphModel>
  </diagram>
</mxfile>
